<?xml version="1.0" standalone="no"?>
<!DOCTYPE svg PUBLIC "-//W3C//DTD SVG 20010904//EN"
 "http://www.w3.org/TR/2001/REC-SVG-20010904/DTD/svg10.dtd">
<svg version="1.0" xmlns="http://www.w3.org/2000/svg"
 width="231.000000pt" height="194.000000pt" viewBox="0 0 231.000000 194.000000"
 preserveAspectRatio="xMidYMid meet">
<metadata>
Created by potrace 1.15, written by Peter Selinger 2001-2017
</metadata>
<g transform="translate(0.000000,194.000000) scale(0.100000,-0.100000)"
fill="#000000" stroke="none">
<path d="M753 1910 c-64 -22 -163 -78 -169 -94 -2 -6 40 -56 93 -111 112 -115
245 -286 263 -339 6 -19 10 -46 8 -58 -3 -22 -7 -23 -101 -25 -54 -1 -101 -3
-103 -6 -3 -3 4 -24 16 -47 28 -55 36 -127 20 -187 -7 -26 -16 -93 -19 -148
l-6 -100 -45 0 -45 0 -7 57 c-16 131 -58 246 -126 345 -58 85 -95 116 -144
122 -31 4 -44 11 -46 24 -4 19 36 109 51 115 12 6 8 21 -18 62 -15 23 -33 40
-44 40 -18 0 -71 -58 -71 -78 0 -5 11 -30 25 -56 14 -26 25 -60 25 -76 0 -24
-5 -29 -28 -32 -24 -3 -27 -7 -30 -45 -2 -28 -8 -43 -17 -43 -7 0 -46 36 -86
80 -70 77 -103 96 -115 65 -7 -17 3 -32 84 -121 l62 -69 98 -6 c112 -7 159
-26 223 -90 60 -60 81 -116 88 -229 l6 -95 105 0 105 0 6 95 c8 148 60 235
172 289 111 53 231 50 319 -9 24 -16 46 -30 49 -30 3 0 6 24 7 53 3 59 8 65
132 149 129 87 190 159 190 224 0 43 -59 141 -117 194 -62 57 -99 68 -181 51
l-56 -11 -41 45 c-23 24 -58 51 -78 60 -53 22 -128 19 -182 -7 l-45 -22 -27
27 c-32 30 -92 57 -125 57 -13 -1 -47 -9 -75 -20z m442 -240 l0 -65 -67 -3
-68 -3 0 -64 0 -65 -70 0 -70 0 0 65 0 65 70 0 70 0 0 63 c0 35 3 67 7 71 4 4
34 6 68 4 l60 -3 0 -65z m276 66 c2 -2 2 -34 1 -70 l-4 -66 -64 0 -64 0 0 -65
0 -65 -70 0 -70 0 0 65 0 65 70 0 70 0 0 70 0 70 63 0 c35 0 66 -2 68 -4z
m139 -201 l0 -66 -67 3 -68 3 -3 39 c-2 22 -1 50 2 63 6 21 12 23 71 23 l65 0
0 -65z"/>
<path d="M200 1131 c-108 -35 -177 -121 -187 -233 -14 -148 109 -278 262 -277
108 0 184 43 234 131 38 67 46 124 27 191 -35 120 -119 188 -240 193 -39 2
-82 0 -96 -5z"/>
<path d="M1044 1091 c-157 -71 -204 -253 -97 -372 37 -41 99 -79 128 -79 23 0
19 47 -4 55 -63 20 -111 96 -111 176 0 167 197 249 311 129 85 -89 62 -242
-43 -293 l-33 -16 -5 47 c-5 45 -7 47 -37 50 l-33 3 0 -126 0 -126 33 3 c31 3
32 5 35 49 3 42 6 47 31 52 15 3 48 21 72 39 147 113 123 326 -46 404 -62 29
-143 31 -201 5z"/>
<path d="M1840 870 l0 -230 30 0 30 0 0 230 0 230 -30 0 -30 0 0 -230z"/>
<path d="M1547 946 c-71 -26 -100 -71 -100 -152 0 -58 22 -105 65 -137 31 -23
112 -33 151 -18 22 9 27 17 27 45 l0 34 -35 -18 c-66 -34 -140 2 -152 73 -12
76 35 127 117 127 33 0 48 -6 71 -29 28 -29 29 -32 29 -130 l0 -101 30 0 30 0
0 108 c0 121 -14 158 -70 187 -44 23 -118 28 -163 11z"/>
<path d="M2075 950 c-65 -22 -105 -80 -105 -153 0 -67 24 -113 75 -142 75 -44
175 -27 175 31 0 25 -18 32 -37 13 -18 -18 -83 -13 -112 8 -42 31 -55 69 -42
114 16 54 52 79 113 79 39 0 54 -5 73 -25 23 -23 25 -31 25 -130 l0 -105 36 0
36 0 -4 109 c-3 117 -12 141 -69 183 -30 22 -120 32 -164 18z"/>
<path d="M185 455 c-119 -42 -152 -193 -60 -274 84 -73 210 -58 265 31 27 44
23 73 -10 73 -18 0 -29 -9 -41 -34 -22 -46 -45 -61 -95 -61 -77 0 -127 66
-105 140 14 49 53 80 98 80 39 0 76 -17 68 -30 -3 -5 -37 -26 -75 -47 -71 -38
-77 -46 -61 -72 8 -12 26 -6 105 35 142 73 137 67 91 114 -36 37 -86 61 -125
60 -8 -1 -33 -7 -55 -15z"/>
<path d="M840 448 c-72 -49 -75 -59 -78 -264 l-3 -184 25 0 26 0 1 153 c0 175
9 211 59 245 70 47 160 -3 160 -89 0 -91 -62 -135 -147 -106 l-43 15 0 -29 c0
-32 8 -38 59 -50 43 -10 98 3 135 32 86 68 76 223 -18 280 -45 28 -133 26
-176 -3z"/>
<path d="M1233 455 c-14 -10 -24 -12 -28 -5 -3 5 -17 10 -31 10 l-25 0 3 -157
c3 -153 4 -158 24 -161 21 -3 22 1 26 102 4 119 20 153 76 171 24 7 32 15 32
32 0 18 -5 23 -28 23 -15 0 -37 -7 -49 -15z"/>
<path d="M1445 455 c-118 -42 -151 -194 -60 -274 83 -73 211 -57 266 32 26 43
22 72 -11 72 -18 0 -29 -9 -41 -34 -9 -19 -24 -40 -34 -48 -26 -18 -96 -16
-124 3 -83 59 -43 204 56 204 39 0 76 -17 68 -30 -3 -5 -37 -26 -75 -47 -71
-38 -77 -46 -61 -72 8 -12 26 -6 105 35 142 73 137 67 91 114 -36 37 -86 61
-125 60 -8 -1 -33 -7 -55 -15z"/>
<path d="M450 437 c0 -16 9 -26 30 -34 31 -12 70 -66 70 -98 0 -32 -39 -86
-70 -98 -28 -11 -41 -43 -24 -60 9 -9 75 20 100 44 19 18 22 18 34 4 19 -23
65 -45 95 -45 20 0 25 5 25 24 0 17 -8 25 -31 32 -93 27 -95 162 -3 200 38 16
49 54 15 54 -30 0 -73 -19 -99 -43 -22 -21 -24 -21 -34 -4 -10 19 -65 47 -93
47 -9 0 -15 -9 -15 -23z"/>
<path d="M1760 447 c-20 -10 -26 -21 -28 -56 -4 -58 21 -84 108 -110 71 -22
96 -41 87 -66 -5 -11 -29 -15 -103 -17 -88 -3 -97 -5 -100 -23 -4 -29 12 -35
104 -35 116 0 162 27 162 95 0 38 -48 79 -117 99 -73 20 -86 29 -81 52 3 16
15 20 88 24 79 5 85 7 88 28 3 21 1 22 -90 22 -54 0 -103 -5 -118 -13z"/>
<path d="M2090 453 c-33 -12 -50 -37 -50 -74 0 -43 27 -70 88 -89 84 -25 113
-43 110 -64 -3 -19 -10 -21 -101 -24 l-98 -3 3 -27 c3 -26 4 -27 80 -30 106
-4 156 11 172 49 28 66 -12 116 -114 145 -64 18 -86 35 -77 58 5 12 28 16 94
18 83 3 88 4 91 26 3 21 1 22 -90 21 -51 0 -100 -3 -108 -6z"/>
</g>
</svg>
